<svg xmlns="http://www.w3.org/2000/svg" xmlns:xlink="http://www.w3.org/1999/xlink" xml:space="preserve" version="1.1" style="shape-rendering:geometricPrecision;text-rendering:geometricPrecision;image-rendering:optimizeQuality;" viewBox="0 0 50800 50800" x="0px" y="0px" fill-rule="evenodd" clip-rule="evenodd"><defs><style type="text/css">
   
    .fil0 {fill:black}
   
  </style></defs><g><path class="fil0" d="M6297 22486c146,-620 62,-258 564,-687l2148 -2260 -274 -599c-913,3 -1048,798 -1622,1437 -1108,1233 101,162 -1651,1699 -1312,1151 -1671,1200 -2753,2274l-896 746 -120 1406c324,361 100,209 561,410 207,-107 1353,-1661 4378,-2149 2174,-351 5372,529 5929,-199 -285,-605 -733,-553 -1592,-559 -3893,-28 -1960,-334 -6308,440l1019 -815c5798,-2997 16003,-4288 22216,-4207 1575,21 4551,476 6199,729l5594 1490c3438,1280 4156,1299 7097,3462 672,494 1441,1048 2321,1229 -32,-736 -2905,-2424 -3665,-2899 -1010,-632 -1493,-987 -2787,-1384l-4470 -1563c-4709,-1360 -5346,-896 -8842,-1572l-6183 -107c-6754,721 -8052,984 -14394,2711 -895,244 -1548,656 -2469,967z"></path></g></svg>